{"title":"Legend - (Tangerine Dream Score) Non Directors Cut(Best Version)","uid":5073504,"size":913084348,"categoryP":"video","categoryS":"movies","magnet":"?xt=urn:btih:ee99c8e2b64212525df550517eb5dcce4307ea71&amp;dn=Legend+-+%28Tangerine+Dream+Score%29+Non+Directors+Cut%28Best+Version%29&amp;tr=udp%3A%2F%2Ftracker.openbittorrent.com%3A80&amp;tr=udp%3A%2F%2Fopen.demonii.com%3A1337&amp;tr=udp%3A%2F%2Ftracker.coppersurfer.tk%3A6969&amp;tr=udp%3A%2F%2Fexodus.desync.com%3A6969","seeders":1,"leechers":0,"uploader":"Squanchy26","files":1,"time":1251608236,"description":"This is the Version of Legend Starring Tom Cruise with the Tangerine Dream Score.\nIt is the best musical version of the movie and it is the Non directors cut.\nMy Wife could not find it on TPB so I decided to get it and put it here Where it Belongs! Seed it please cause its the only version worth watching.\n\nFile Information\n\nGeneral\nComplete name                    : C:TempDVDLegend - (Tangerine Dream Score) Non Directors Cut(Best Version).AVI\nFormat                           : AVI\nFormat/Info                      : Audio Video Interleave\nFile size                        : 871 MiB\nDuration                         : 1h 29mn\nOverall bit rate                 : 1 362 Kbps\n\nVideo\nID                               : 0\nFormat                           : MPEG-4 Visual\nFormat profile                   : Simple@L3\nFormat settings, BVOP            : No\nFormat settings, QPel            : No\nFormat settings, GMC             : No warppoints\nFormat settings, Matrix          : Default (H.263)\nCodec ID                         : XVID\nCodec ID/Hint                    : XviD\nDuration                         : 1h 29mn\nBit rate                         : 1 226 Kbps\nWidth                            : 720 pixels\nHeight                           : 480 pixels\nDisplay aspect ratio             : 1.500\nFrame rate                       : 29.970 fps\nStandard                         : NTSC\nResolution                       : 24 bits\nColorimetry                      : 4:2:0\nScan type                        : Progressive\nBits/(Pixel*Frame)               : 0.118\nStream size                      : 784 MiB (90%)\nWriting library                  : ZJMedia MPEG Encoder\n\nAudio\nID                               : 1\nFormat                           : MPEG Audio\nFormat version                   : Version 1\nFormat profile                   : Layer 3\nCodec ID                         : 55\nCodec ID/Hint                    : MP3\nDuration                         : 1h 29mn\nBit rate mode                    : Constant\nBit rate                         : 128 Kbps\nChannel(s)                       : 2 channels\nSampling rate                    : 44.1 KHz\nResolution                       : 16 bits\nStream size                      : 81.8 MiB (9%)\nAlignment                        : Split accross interleaves\nInterleave, duration             : 968 ms (29.00 video frames)\n\n","torrent":{"xt":"urn:btih:ee99c8e2b64212525df550517eb5dcce4307ea71","amp;dn":"Legend+-+%28Tangerine+Dream+Score%29+Non+Directors+Cut%28Best+Version%29","amp;tr":["udp%3A%2F%2Ftracker.openbittorrent.com%3A80","udp%3A%2F%2Fopen.demonii.com%3A1337","udp%3A%2F%2Ftracker.coppersurfer.tk%3A6969","udp%3A%2F%2Fexodus.desync.com%3A6969"],"infoHash":"ee99c8e2b64212525df550517eb5dcce4307ea71","infoHashBuffer":{"type":"Buffer","data":[238,153,200,226,182,66,18,82,93,245,80,81,126,181,220,206,67,7,234,113]},"announce":[],"urlList":[]}}